<?xml version="1.0" encoding="utf-8"?>
<!-- Generator: Adobe Illustrator 24.1.1, SVG Export Plug-In . SVG Version: 6.00 Build 0)  -->
<svg version="1.1" id="Layer_1" xmlns="http://www.w3.org/2000/svg" xmlns:xlink="http://www.w3.org/1999/xlink" x="0px" y="0px"
	 viewBox="0 0 512 512" style="enable-background:new 0 0 512 512;" xml:space="preserve">
<g>
	<path d="M457.1,0H54.9C24.6,0,0,24.6,0,54.9v402.3C0,487.4,24.6,512,54.9,512h402.3c30.3,0,54.9-24.6,54.9-54.9V54.9
		C512,24.6,487.4,0,457.1,0z M145.2,402.8c-6.3,11-20.3,14.6-31.2,8.3c-11-6.3-14.6-20.3-8.3-31.2l16.3-28.2
		c18.4-5.6,33.5-1.3,45.3,13L145.2,402.8z M303.9,341.3H96c-12.6,0-22.9-10.3-22.9-22.9s10.3-22.9,22.9-22.9h58.3L229,166.2
		l-23.4-40.4c-6.3-11-2.5-24.9,8.3-31.2c11-6.3,24.9-2.5,31.2,8.3l10.2,17.6l10.2-17.6c6.3-11,20.3-14.6,31.2-8.3
		c11,6.3,14.6,20.4,8.3,31.2L207,295.6h71C301,295.6,313.9,322.7,303.9,341.3L303.9,341.3z M416,341.3h-33.2l22.4,38.8
		c6.3,11,2.5,24.9-8.3,31.2c-11,6.3-24.9,2.5-31.2-8.3c-37.6-65-65.7-113.9-84.6-146.4c-19.1-33.2-5.5-66.3,8.1-77.5
		c15,25.9,37.4,64.8,67.3,116.6H416c12.6,0,22.9,10.3,22.9,22.9C438.9,331.1,428.6,341.3,416,341.3L416,341.3z"/>
</g>
</svg>
