<?xml version="1.0" encoding="utf-8"?>

<!DOCTYPE svg PUBLIC "-//W3C//DTD SVG 1.1//EN" "http://www.w3.org/Graphics/SVG/1.1/DTD/svg11.dtd">
<!-- Uploaded to: SVG Repo, www.svgrepo.com, Generator: SVG Repo Mixer Tools -->
<svg height="800px" width="800px" version="1.1" id="_x32_" xmlns="http://www.w3.org/2000/svg" xmlns:xlink="http://www.w3.org/1999/xlink" 
	 viewBox="0 0 512 512"  xml:space="preserve">
<style type="text/css">
	.st0{fill:#000000;}
</style>
<g>
	<path class="st0" d="M419.72,128.55c4.384-19.288,6.602-39.97,6.602-61.493V20.293C426.323,9.08,417.242,0,406.03,0h-76.787
		c-11.195,0-20.293,9.08-20.293,20.293v17.433h-105.9V20.293C203.05,9.08,193.952,0,182.757,0h-76.796
		C94.757,0,85.677,9.08,85.677,20.293v46.764c0,28.455,3.924,55.446,11.662,80.253c10.433,33.429,27.762,63.504,52.976,91.968
		c4.94,5.572,10.207,11.108,15.9,16.732c-24.062,23.828-42.085,48.089-54.969,74.031c-8.378,16.94-14.765,34.902-18.967,53.41
		c-4.384,19.304-6.602,39.988-6.602,61.476v46.789c0,11.187,9.08,20.284,20.284,20.284h76.796c11.195,0,20.293-9.097,20.293-20.284
		v-17.442h105.9v17.442c0,11.187,9.098,20.284,20.293,20.284h76.787c11.212,0,20.293-9.097,20.293-20.284v-46.789
		c0-28.551-3.933-55.558-11.671-80.236c-10.432-33.429-27.753-63.504-52.968-91.951c-4.947-5.589-10.19-11.108-15.883-16.731
		c24.314-24.062,41.894-47.752,54.934-73.963C409.097,165.176,415.484,147.196,419.72,128.55z M163.235,434.191
		c-0.191,3.483-0.269,7.08-0.269,10.736v26.991H125.76v-26.991c0-18.967,1.95-36.462,5.606-52.587
		c3.657-16.133,9.072-30.933,15.796-44.528c13.517-27.199,32.346-49.416,53.28-69.18c2.687-2.538,5.416-5.06,8.198-7.487
		c7.426,6.178,14.764,11.992,21.704,17.478c2.522,1.984,5.096,4.011,7.738,6.134c-10.874,9.479-20.942,19.097-29.884,29.192
		c-4.93,5.589-9.505,11.273-13.716,17.2h93.952c7.418,8.622,13.491,17.104,18.474,25.778H179.29
		c-3.153,6.584-5.874,13.516-8.162,20.813c-2.071,6.524-3.744,13.395-5.034,20.691H322.58c1.75,8.18,2.815,16.714,3.275,25.76
		H163.235z M376.397,376.631c6.386,20.354,9.86,42.994,9.86,68.296v26.991h-37.224v-26.991c0-3.656-0.087-7.253-0.251-10.736
		c-0.425-9.15-1.404-17.711-2.869-25.76c-0.45-2.66-0.996-5.294-1.568-7.842c-2.782-12.252-6.707-23.36-11.602-33.662
		c-0.39-0.858-0.798-1.725-1.222-2.574c-4.081-8.128-8.734-15.831-14.003-23.204c-8.942-12.564-19.522-24.175-31.496-35.456
		c-9.297-8.786-19.374-17.338-29.988-25.942c-3.778-3.033-7.625-6.065-11.516-9.125c-6.117-4.826-12.209-9.669-18.24-14.617
		c-16.307-13.448-31.938-27.502-45.957-43.316c-19.158-21.61-35.188-46.772-44.728-77.324c-6.351-20.353-9.834-42.994-9.834-68.313
		V40.066h37.207v26.991c0,3.682,0.078,7.252,0.269,10.735c0.424,9.185,1.386,17.737,2.859,25.778c0.442,2.66,0.996,5.285,1.56,7.842
		c2.782,12.243,6.707,23.351,11.636,33.662c0.407,0.867,0.798,1.707,1.231,2.574c4.029,8.128,8.708,15.839,13.959,23.187
		c8.942,12.564,19.556,24.192,31.496,35.473c9.297,8.786,19.409,17.338,30.023,25.925c3.778,3.05,7.616,6.082,11.516,9.15
		c6.109,4.818,12.209,9.67,18.24,14.626c16.272,13.413,31.904,27.467,45.94,43.306C350.844,320.916,366.866,346.078,376.397,376.631
		z M386.257,67.056c0,18.984-1.95,36.478-5.624,52.604c-3.656,16.134-9.046,30.933-15.795,44.537
		c-13.518,27.19-32.346,49.407-53.245,69.154c-2.695,2.556-5.433,5.086-8.214,7.504c-7.452-6.178-14.765-11.992-21.722-17.494
		c-2.531-1.958-5.104-3.994-7.738-6.1c10.882-9.462,20.96-19.08,29.884-29.227c4.931-5.571,9.532-11.273,13.751-17.199h-93.952
		c-7.452-8.605-13.509-17.087-18.491-25.761h127.615c3.154-6.584,5.858-13.508,8.145-20.813c2.071-6.515,3.76-13.395,5.077-20.691
		H189.412c-1.707-8.197-2.79-16.714-3.249-25.778h162.62c0.164-3.483,0.251-7.053,0.251-10.735V40.066h37.224V67.056z"/>
</g>
</svg>