<?xml version="1.0" encoding="utf-8"?>
<!-- Generator: Adobe Illustrator 24.1.1, SVG Export Plug-In . SVG Version: 6.00 Build 0)  -->
<svg version="1.1" id="Layer_1" xmlns="http://www.w3.org/2000/svg" xmlns:xlink="http://www.w3.org/1999/xlink" x="0px" y="0px"
	 viewBox="0 0 512 512" style="enable-background:new 0 0 512 512;" xml:space="preserve">
<g id="XMLID_1_">
	<path id="XMLID_3_" d="M358.2,105h95.7c3.7,0,6.5-2.8,6.5-6.5c0-8.4-3.7-16.7-10.2-22.3L367.5,8.4c-5.6-4.6-14.9-7.4-22.3-7.4
		c-4.6,0-7.4,3.7-7.4,7.4v77.1C337.8,96.6,347.1,105,358.2,105z"/>
	<path id="XMLID_4_" d="M309.9,85.5V0H170.5c-18.6,0-34.4,14.9-34.4,34.4v357.7c0,18.6,14.9,34.4,34.4,34.4H426
		c18.6,0,34.4-15.8,34.4-34.4V132.9H358.2C332.2,132.9,309.9,111.5,309.9,85.5z"/>
	<path id="XMLID_5_" d="M107.3,421.9V68.8H86c-18.6,0-34.4,14.9-34.4,34.4v374.5c0,18.6,14.9,34.4,34.4,34.4h272.3
		c18.6,0,34.4-15.8,34.4-34.4v-21.4H141.7C122.2,455.3,107.3,440.5,107.3,421.9z"/>
</g>
</svg>
